# xmcd CD database file
#
# Track frame offsets:
#	150
#	16340
#	32177
#	47140
#	73047
#
# Disc length: 1044 seconds
#
# Revision: 0
# Processed by: cddbd v1.5PL3 Copyright (c) Steve Scherf et al.
# Submitted via: CDex 1.50beta9
#
DISCID=3e041205
DTITLE=STALE FISH GRAB - ZERO-0-
DYEAR=1900
DGENRE=New Age
TTITLE0=MECHANIZATION
TTITLE1=MINDLESS HUMAN SUICIDE
TTITLE2=POSERS
TTITLE3=JEW
TTITLE4=…
EXTD=
EXTT0=
EXTT1=
EXTT2=
EXTT3=
EXTT4=
PLAYORDER=
